<?xml version="1.0" standalone="no"?>
<!DOCTYPE svg PUBLIC "-//W3C//DTD SVG 1.1//EN" "http://www.w3.org/Graphics/SVG/1.1/DTD/svg11.dtd" >
<svg xmlns="http://www.w3.org/2000/svg">
<metadata>Generated by IcoMoon</metadata>
<defs>
<font id="AgentAssist-icons" horiz-adv-x="1024">
<font-face units-per-em="1024" ascent="960" descent="-64" />
<missing-glyph horiz-adv-x="1024" />
<glyph unicode="&#x20;" horiz-adv-x="512" d="" />
<glyph unicode="&#xe900;" glyph-name="breadcum" horiz-adv-x="1195" d="M69.333 917.333c-23.564 0-42.667-19.103-42.667-42.667s19.103-42.667 42.667-42.667h1024c23.561 0 42.667 19.103 42.667 42.667s-19.106 42.667-42.667 42.667h-1024zM69.333 490.667c-23.564 0-42.667-19.103-42.667-42.667s19.103-42.667 42.667-42.667h1024c23.561 0 42.667 19.103 42.667 42.667s-19.106 42.667-42.667 42.667h-1024zM69.333 64c-23.564 0-42.667-19.106-42.667-42.667s19.103-42.667 42.667-42.667h1024c23.561 0 42.667 19.106 42.667 42.667s-19.106 42.667-42.667 42.667h-1024z" />
<glyph unicode="&#xe901;" glyph-name="automation" horiz-adv-x="1182" d="M460.71 960c-136.716 0-247.943-109.693-247.943-244.524s111.228-244.524 247.943-244.524c55.837 0 107.261 18.548 148.767 49.382v107.41c-30.373-49.883-85.591-83.435-148.767-83.435-95.681 0-173.561 76.806-173.561 171.167s77.88 171.167 173.561 171.167c63.176 0 118.393-33.552 148.767-83.434v46.756c0 18.779 3.489 36.74 9.589 53.49-42.994 35.285-98.179 56.546-158.355 56.546zM770.64 960c-61.18 0-111.574-49.7-111.574-110.036v-342.333c0.001-6.639 1.829-13.152 5.289-18.846s8.421-10.356 14.356-13.488c5.934-3.132 12.62-4.617 19.343-4.298s13.232 2.433 18.834 6.114l139.421 91.649h187.069c61.18 0 111.577 49.699 111.577 110.036v171.167c0 60.336-50.397 110.036-111.577 110.036h-272.737zM770.64 886.643h272.737c20.992 0 37.195-15.98 37.195-36.679v-171.167c0-20.699-16.203-36.678-37.195-36.678h-198.357c-7.341-0.001-14.517-2.144-20.63-6.161l-90.942-59.794v273.8c0 20.699 16.204 36.679 37.192 36.679zM175.575 373.142c-61.515 0-111.575-49.369-111.575-110.035v-36.679c0-137.103 174.255-244.521 396.71-244.521s396.709 107.418 396.709 244.521v36.679c0 60.666-50.058 110.035-111.573 110.035h-570.271zM175.575 299.785h570.271c20.505 0 37.192-16.456 37.192-36.678v-36.679c0-92.772-147.601-171.163-322.328-171.163s-322.327 78.391-322.327 171.163v36.679c0 20.222 16.686 36.678 37.192 36.678z" />
<glyph unicode="&#xe902;" glyph-name="transcipt" d="M330.666 853.143c-76.201 0-138.666-62.465-138.666-138.666v-480h-74.666c-29.090 0-53.334-24.242-53.334-53.331v-42.672c0-52.641 43.36-96 96-96h576c52.641 0 96 43.359 96 96v522.669h74.664c29.089 0 53.336 24.243 53.336 53.334v42.666c0 50.918-40.667 92.79-90.96 95.5-1.66 0.299-3.35 0.467-5.040 0.5h-533.334zM330.666 789.143h443.873c-3.672-10.122-6.539-20.68-6.539-32v-58.75c-0.563-3.436-0.563-6.94 0-10.375v-549.543c0-18.059-13.941-32-32-32s-32 13.941-32 32v42.672c0 29.089-24.243 53.331-53.334 53.331h-394.666v480c0 41.601 33.066 74.666 74.666 74.666zM864 789.143c18.059 0 32-13.941 32-32v-32h-64v32c0 18.059 13.941 32 32 32zM128 170.474h90.75c3.436-0.563 6.94-0.563 10.375 0h410.875v-32c0-11.315 2.871-21.877 6.542-32h-486.542c-18.059 0-32 13.941-32 32v32z" />
<glyph unicode="&#xe903;" glyph-name="bot" horiz-adv-x="1109" d="M70.672 959.995c-5.603-0.086-11.134-1.264-16.277-3.464s-9.798-5.382-13.698-9.362c-3.9-3.98-6.969-8.68-9.033-13.834s-3.080-10.658-2.992-16.199v-854.536c-0.017-7.526 1.998-14.908 5.836-21.402s9.361-11.853 15.997-15.522c0 0 44.16-23.927 125.5-45.995s202.623-43.682 364.667-43.682c162.044 0 283.327 21.615 364.663 43.682 81.34 22.067 125.5 45.995 125.5 45.995 6.639 3.669 12.16 9.028 16 15.522s5.854 13.875 5.837 21.402v294.569c0.034 0.989 0.034 1.979 0 2.968v556.999c0.085 5.653-0.973 11.266-3.115 16.505-2.15 5.24-5.333 10-9.378 13.997s-8.858 7.151-14.148 9.274c-5.299 2.123-10.974 3.171-16.691 3.082-5.606-0.086-11.136-1.264-16.282-3.464-5.137-2.201-9.796-5.382-13.696-9.362s-6.972-8.68-9.028-13.834c-2.065-5.153-3.081-10.658-2.995-16.199v-186.765c-89.395 132.096-240.425 220.537-411.5 225.833-4.82 1.951-9.96 3.012-15.166 3.132-177.556 0-334.729-90.883-426.667-227.811v185.612c0.090 5.653-0.97 11.266-3.116 16.505s-5.335 10-9.376 13.997c-4.042 3.998-8.855 7.151-14.153 9.274s-10.973 3.171-16.688 3.082zM540.672 874.937c234.86 0 426.667-189.706 426.667-421.994v-361.329c-10.854-5.402-25.668-14.498-84.668-30.498-74.222-20.139-187.627-40.721-341.999-40.721s-267.777 20.582-342 40.721c-58.999 16-73.817 25.097-84.667 30.498v316.163c0.035 0.988 0.035 1.978 0 2.967v42.199c0 232.288 191.806 421.994 426.667 421.994zM327.339 537.341c-70.4 0-128-56.969-128-126.598s57.6-126.599 128-126.599h426.667c70.4 0 128 56.969 128 126.599s-57.6 126.598-128 126.598h-426.667zM325.338 452.943c23.552 0 42.667-18.906 42.667-42.199s-19.029-42.2-42.667-42.2c-23.552 0-42.667 18.906-42.667 42.2s19.115 42.199 42.667 42.199zM754.005 452.943c23.552 0 42.667-18.906 42.667-42.199s-19.115-42.2-42.667-42.2c-23.552 0-42.667 18.906-42.667 42.2s19.115 42.199 42.667 42.199z" />
<glyph unicode="&#xe904;" glyph-name="move-arrow" horiz-adv-x="1280" d="M611.802 48.348c15.93-19.296 14.868-47.908-3.186-65.961-19.182-19.183-50.282-19.183-69.464 0l-427.201 427.517c-15.93 19.296-14.868 47.907 3.186 65.961l427.518 427.2c19.296 15.93 47.907 14.868 65.961-3.186l3.186-3.504c15.93-19.296 14.868-47.907-3.186-65.96l-389.292-389.275 392.477-392.792zM1177.549 48.348c15.931-19.296 14.868-47.908-3.186-65.961-19.182-19.183-50.282-19.183-69.464 0l-427.2 427.517c-15.93 19.296-14.868 47.907 3.186 65.961l427.517 427.2c19.296 15.93 47.908 14.868 65.961-3.186l3.186-3.504c15.931-19.296 14.868-47.907-3.186-65.96l-389.274-389.275 392.46-392.792z" />
<glyph unicode="&#xe905;" glyph-name="entity-rule" horiz-adv-x="1109" d="M47.833 881.231c0 43.492 35.277 78.769 78.769 78.769h236.308c43.492 0 78.769-35.277 78.769-78.769v-78.769h236.308v78.769c0 43.492 35.278 78.769 78.769 78.769h236.31c43.486 0 78.763-35.277 78.763-78.769v-236.308c0-43.492-35.277-78.769-78.763-78.769h-78.771v-236.308h78.771c43.486 0 78.763-35.277 78.763-78.769v-236.306c0-43.494-35.277-78.771-78.763-78.771h-236.31c-43.492 0-78.769 35.277-78.769 78.771v236.306c0 43.492 35.278 78.769 78.769 78.769h78.769v236.308h-78.769c-43.492 0-78.769 35.277-78.769 78.769v78.769h-236.308v-78.769c0-43.492-35.278-78.769-78.769-78.769h-78.769v-236.308h78.769c43.481 0 78.769-35.367 78.769-78.769v-236.306c0-43.401-35.289-78.771-78.769-78.771h-236.308c-43.48 0-78.769 35.371-78.769 78.771v236.306c0 43.401 35.289 78.769 78.769 78.769h78.769v236.308h-78.769c-43.491 0-78.769 35.277-78.769 78.769v236.308zM362.91 881.231h-236.308v-236.308h236.308v236.308zM993.067 881.231h-236.31v-236.308h236.31v236.308zM756.756 14.771v236.306h236.31v-236.306h-236.31z" />
<glyph unicode="&#xe906;" glyph-name="overflow" horiz-adv-x="4096" d="M883.2 449.065c0 214.435-173.834 388.268-388.267 388.268-214.434 0-388.267-173.833-388.267-388.268 0-214.432 173.833-388.267 388.267-388.267 214.432 0 388.267 173.834 388.267 388.267zM2048 837.333c214.432 0 388.267-173.833 388.267-388.268 0-214.432-173.834-388.267-388.267-388.267s-388.267 173.834-388.267 388.267c0 214.435 173.834 388.268 388.267 388.268zM3601.067 837.333c214.426 0 388.267-173.833 388.267-388.268 0-214.432-173.841-388.267-388.267-388.267-214.432 0-388.267 173.834-388.267 388.267 0 214.435 173.834 388.268 388.267 388.268z" />
<glyph unicode="&#xe907;" glyph-name="copy" d="M972.638 872.769c-1.823 20.201-18.802 36.031-39.477 36.031l-582.704-0.162c-20.201-1.823-36.031-18.801-36.031-39.477v-223.587h-223.587c-21.892 0-39.639-17.747-39.639-39.639v-579.097c0-21.892 17.747-39.639 39.639-39.639h579.097c21.892 0 39.639 17.747 39.639 39.639v223.586l227.195 0.163c20.2 1.823 36.030 18.801 36.030 39.476v579.097l-0.162 3.608zM709.575 329.703v276.232c0 21.892-17.747 39.639-39.639 39.639h-276.232v183.948h499.82v-499.82h-183.948zM630.297 566.297v-499.82h-499.82v499.82h499.82z" />
<glyph unicode="&#xe908;" glyph-name="thumbup" horiz-adv-x="878" d="M529.859 935.287c-10.348-0.6-20.631-3.128-30.226-8.391-19.19-10.526-30.818-29.17-37.783-48.757-0.015-0.015-0.030-0.031-0.045-0.045-1.723-4.882-0.827-2.631-1.17-3.81s-0.795-2.735-1.349-4.672c-1.108-3.874-2.608-9.211-4.408-15.557-3.601-12.692-8.312-29.398-12.999-45.991-9.374-33.186-18.666-66.038-18.666-66.038 0-0.030 0-0.060 0-0.091-2.635-9.423-4.829-14.421-5.757-15.874-0.015-0.030-0.030-0.061-0.045-0.091-33.987-53.437-70.599-107.251-106.149-161.692h-158.775c-56.824 0-103.63-47.199-103.63-104.499v-371.548c0-57.3 46.806-104.499 103.63-104.499h92.117c28.955 0 55.104 12.412 73.989 32.015 53.15-11.6 112.473-24.459 160.799-34.736 25.326-5.391 47.585-10.057 64.364-13.473 16.759-3.416 23.001-5.244 34.049-6.305 7.096-0.695 14.139-1.046 21.095-1.046 98.605 0 185.762 67.635 210.996 165.866 19.288 75.191 58.792 231.048 58.968 231.722 3.211 11.938 7.695 27.989 8.726 47.215 0 0.015 0 0.030 0 0.045 2.202 41.537-12.098 81.954-40.17 111.892 0 0.015 0 0.030 0 0.045-28.526 30.395-68.528 47.217-110.6 47.306-0.030 0-0.060 0-0.090 0h-91.396c8.097 29.202 16.087 57.422 21.904 80.324 0 0.015 0 0.031 0 0.045 13.908 55.033 17.158 104.181 8.726 151.352 0 0.015 0 0.030 0 0.045-4.235 23.526-12.224 57.851-36.388 89.441-17.561 22.945-41.684 39.651-69.042 46.58-0.030 0-0.060 0-0.090 0-9.837 2.472-20.239 3.82-30.585 3.22zM534.401 865.938c1.595 0.019 4.46-0.24 9.31-1.451 12.252-3.103 21.787-9.285 31.17-21.544 13.743-17.966 19.571-39.612 23.119-59.325 6.436-36.043 4.465-73.679-7.691-121.779-8.304-32.686-33.509-122.958-33.509-122.958-1.444-5.178-1.679-10.622-0.688-15.906s3.183-10.266 6.403-14.553c3.219-4.288 7.379-7.766 12.155-10.162s10.036-3.643 15.37-3.646h136.69c24.323-0.062 45.095-9.127 60.499-25.535 15.082-16.089 22.608-36.792 21.365-60.322-0.541-10.081-3.204-20.906-6.393-32.747-0.044-0.166-0.088-0.332-0.132-0.499 0 0-39.797-156.916-59.056-231.997-17.56-68.359-76.542-113.657-144.114-113.657-4.789 0-9.605 0.256-14.438 0.724-0.015 0-0.030 0-0.045 0 5.271-0.505-10.555 1.865-26.987 5.215s-38.56 8.016-63.78 13.385c-44.060 9.37-97.458 20.963-146.9 31.744 0.189 2.538 1.484 4.718 1.484 7.307v406.109c40.779 64.22 85.331 128.024 127.29 193.985l0.045 0.045c7.567 11.857 10.959 23.378 14.123 34.698 0.023 0.083 9.267 32.829 18.621 65.946 4.683 16.58 9.367 33.214 12.954 45.855 1.793 6.32 3.327 11.642 4.408 15.421 0.541 1.889 0.965 3.387 1.26 4.4 3.599 10.067 6.039 11.2 5.712 11.021-0.164-0.090 0.159 0.208 1.755 0.227zM152.487 494.613h126.66v-406.381c0-19.661-15.049-34.838-34.543-34.838h-92.117c-19.494 0-34.543 15.177-34.543 34.838v371.548c0 19.657 15.049 34.833 34.543 34.833z" />
<glyph unicode="&#xe909;" glyph-name="thumbdown" horiz-adv-x="878" d="M529.859-39.285c-10.348 0.6-20.631 3.123-30.226 8.389-19.19 10.525-30.818 29.169-37.783 48.757-0.015 0.015-0.030 0.029-0.045 0.044-1.723 4.886-0.827 2.633-1.17 3.811s-0.795 2.736-1.349 4.674c-1.108 3.869-2.608 9.209-4.408 15.557-3.601 12.69-8.312 29.396-12.999 45.985-9.374 33.192-18.666 66.041-18.666 66.041 0 0.029 0 0.059 0 0.088-2.635 9.428-4.829 14.424-5.757 15.879-0.015 0.029-0.030 0.059-0.045 0.088-33.988 53.438-70.599 107.252-106.149 161.693h-158.775c-56.824 0-103.63 47.199-103.63 104.499v371.552c0 57.3 46.806 104.499 103.63 104.499h92.116c28.956 0 55.104-12.419 73.99-32.021 53.15 11.606 112.473 24.465 160.799 34.742 25.326 5.386 47.585 10.051 64.364 13.471 16.759 3.415 23.001 5.24 34.049 6.304 7.096 0.691 14.139 1.043 21.095 1.043 98.605 0 185.762-67.629 210.996-165.865 19.288-75.189 58.792-231.047 58.968-231.721 3.211-11.938 7.695-27.989 8.726-47.215 0-0.015 0-0.030 0-0.045 2.202-41.537-12.098-81.954-40.17-111.892 0-0.015 0-0.030 0-0.045-28.526-30.395-68.528-47.217-110.6-47.306-0.030 0-0.060 0-0.090 0h-91.397c8.098-29.202 16.088-57.422 21.905-80.324 0-0.015 0-0.031 0-0.045 13.908-55.036 17.158-104.18 8.726-151.35 0-0.015 0-0.029 0-0.044-4.235-23.53-12.224-57.856-36.388-89.446-17.561-22.945-41.684-39.651-69.042-46.577-0.030 0-0.060 0-0.090 0-9.837-2.472-20.239-3.818-30.585-3.218zM534.401 30.062c1.595-0.022 4.46 0.241 9.31 1.448 12.252 3.109 21.787 9.289 31.17 21.548 13.743 17.964 19.571 39.614 23.119 59.326 6.436 36.045 4.465 73.677-7.691 121.777-8.304 32.687-33.509 122.959-33.509 122.959-1.444 5.177-1.679 10.621-0.688 15.906s3.183 10.266 6.403 14.554c3.219 4.288 7.379 7.766 12.155 10.161s10.036 3.643 15.37 3.646h136.69c24.323 0.062 45.095 9.127 60.499 25.535 15.082 16.089 22.608 36.792 21.365 60.322-0.541 10.081-3.204 20.906-6.393 32.747-0.044 0.166-0.088 0.333-0.132 0.499 0 0-39.797 156.913-59.056 231.993-17.56 68.359-76.542 113.661-144.114 113.661-4.789 0-9.605-0.255-14.438-0.726-0.015 0-0.030 0-0.045 0 5.271 0.506-10.555-1.867-26.988-5.216s-38.559-8.017-63.779-13.38c-44.060-9.37-97.458-20.97-146.9-31.749 0.189-2.539 1.484-4.719 1.484-7.302v-406.113c40.779-64.22 85.331-128.023 127.29-193.984l0.045-0.044c7.567-11.856 10.959-23.384 14.123-34.699 0.023-0.080 9.267-32.827 18.621-65.946 4.683-16.581 9.367-33.214 12.954-45.853 1.793-6.32 3.327-11.644 4.408-15.426 0.541-1.887 0.965-3.387 1.26-4.396 3.599-10.072 6.039-11.205 5.712-11.023-0.164 0.088 0.159-0.205 1.755-0.227zM152.487 401.387h126.66v406.385c0 19.657-15.050 34.833-34.544 34.833h-92.116c-19.494 0-34.543-15.176-34.543-34.833v-371.552c0-19.657 15.049-34.833 34.543-34.833z" />
<glyph unicode="&#xe90a;" glyph-name="search" d="M469.396 901.714c-222.079 0-402.11-180.512-402.11-403.184s180.031-403.181 402.11-403.181c97.117 0 186.193 34.516 255.688 91.992l186.429-184.635 2.779-2.501c15.301-12.515 37.873-11.535 52.034 2.838 15.038 15.272 14.892 39.877-0.344 54.96l-186.097 184.308c57.242 69.658 91.619 158.914 91.619 256.219 0 222.672-180.029 403.184-402.109 403.184zM469.396 823.992c179.269 0 324.592-145.714 324.592-325.462s-145.323-325.459-324.592-325.459c-179.269 0-324.595 145.712-324.595 325.459s145.326 325.462 324.595 325.462z" />
<glyph unicode="&#xe90b;" glyph-name="agent" horiz-adv-x="1621" d="M160.569 540.667c22.036 0.043 43.184-8.692 58.767-24.275s24.318-36.73 24.275-58.767c0-45.773-37.106-82.88-82.879-82.88-45.52 0.357-82.232 37.359-82.231 82.88-0.091 45.521 36.55 82.597 82.069 83.042zM1488.384 540.667c22.033 0.043 43.179-8.692 58.761-24.275s24.32-36.73 24.277-58.767c0-45.773-37.103-82.88-82.876-82.88-22.016-0.043-43.136 8.67-58.718 24.218-15.573 15.548-24.329 36.653-24.329 58.662-0.043 22.009 8.67 43.132 24.218 58.709s36.651 24.333 58.667 24.333zM492.547 706.667c45.862 0 83.041-37.179 83.041-83.042v-331.843c0-45.862-37.179-83.041-83.041-83.041-22.009 0-43.115 8.753-58.662 24.332s-24.26 36.7-24.218 58.709v331.843c-0.043 22.009 8.67 43.132 24.218 58.71s36.653 24.332 58.662 24.332v0zM1156.463 706.667v0c45.818 0 82.961-37.143 82.961-82.961v-332.005c0-45.818-37.143-82.961-82.961-82.961v0c-45.818 0-82.961 37.143-82.961 82.961v332.005c0 45.818 37.143 82.961 82.961 82.961zM824.542 955.333c22.009 0 43.11-8.754 58.658-24.332s24.26-36.701 24.218-58.709v-829.77c0.043-22.007-8.67-43.127-24.218-58.709-15.548-15.573-36.649-24.329-58.658-24.329-45.862 0-83.042 37.18-83.042 83.038v829.77c0 45.862 37.18 83.041 83.042 83.041z" />
<glyph unicode="&#xe90c;" glyph-name="check-right" horiz-adv-x="1365" d="M1237.333 892.333l-768-768-311.334 311-30 30.333-60.333-60.333 30.334-30 371.333-371.664 828.331 828.331-60.331 60.333z" />
<glyph unicode="&#xe90d;" glyph-name="carrotup" horiz-adv-x="1877" d="M1054.186 81.154c-32.324-32.236-83.552-34.132-118.098-5.688l-6.274 5.688-765.389 729.126c-34.344 34.25-34.344 89.781 0 124.032 32.325 32.236 83.55 34.132 118.098 5.689l6.274-5.689 703.203-667.096 703.203 667.096c32.319 32.236 83.553 34.132 118.096 5.689l6.281-5.689c32.324-32.236 34.219-83.322 5.7-117.776l-5.7-6.256-765.394-729.126z" />
<glyph unicode="&#xe90e;" glyph-name="bulb" horiz-adv-x="1161" d="M172.264 944c-6.793-0.002-13.431-2.030-19.065-5.825s-10.007-9.185-12.56-15.48c-2.554-6.295-3.171-13.208-1.773-19.856s4.748-12.727 9.62-17.46l32.177-32.177c3.146-3.276 6.913-5.891 11.082-7.693s8.655-2.754 13.196-2.8c4.541-0.046 9.045 0.814 13.25 2.531s8.024 4.254 11.235 7.466c3.211 3.211 5.749 7.031 7.466 11.235s2.577 8.709 2.531 13.251c-0.046 4.541-0.997 9.027-2.8 13.196s-4.417 7.936-7.692 11.081l-32.178 32.178c-3.181 3.277-6.988 5.881-11.194 7.66s-8.727 2.695-13.294 2.696zM954.887 943.956c-8.868-0.258-17.278-3.956-23.47-10.311l-32.174-32.178c-3.277-3.145-5.891-6.912-7.694-11.081s-2.751-8.655-2.799-13.196c-0.048-4.541 0.812-9.046 2.533-13.251 1.713-4.205 4.253-8.024 7.462-11.235 3.215-3.211 7.031-5.749 11.237-7.466s8.711-2.577 13.251-2.531c4.54 0.046 9.025 0.998 13.196 2.8s7.933 4.417 11.080 7.693l32.181 32.177c4.922 4.796 8.281 10.967 9.646 17.705 1.359 6.738 0.649 13.73-2.028 20.059-2.683 6.33-7.209 11.703-12.998 15.417-5.782 3.714-12.554 5.595-19.422 5.397zM564.086 893.156c-175.45-0.051-318.578-142.707-318.578-318.223 0-91.010 38.489-173.386 99.867-231.378 7.219-6.817 12.521-16.42 14.978-27.422l56.133-252.666c10.366-46.667 52.154-80.179 99.955-80.179h95.289c47.806 0 89.58 33.519 99.956 80.179l56.177 252.71c2.437 10.97 7.707 20.52 14.937 27.333l0.041 0.044c61.351 57.989 99.82 140.368 99.82 231.378 0 175.516-143.121 318.172-318.575 318.223zM564.086 824.889c138.665-0.040 250.308-111.353 250.308-249.956 0-71.828-30.153-136.094-78.486-181.778-18.138-17.119-29.594-39.17-34.714-62.222l-26.664-120.092h-220.889l-26.666 120.136c-5.144 23.040-16.581 45.056-34.712 62.177-48.349 45.683-78.489 109.95-78.489 181.778 0 138.602 111.644 249.915 250.311 249.956zM52.086 643.2c-4.523 0.064-9.014-0.771-13.211-2.458s-8.018-4.19-11.239-7.367c-3.221-3.176-5.779-6.96-7.525-11.133s-2.645-8.651-2.645-13.175c0-4.523 0.899-9.002 2.645-13.175s4.304-7.957 7.525-11.134c3.221-3.176 7.041-5.68 11.239-7.366s8.688-2.522 13.211-2.459h68.267c4.523-0.063 9.014 0.772 13.211 2.459s8.018 4.19 11.239 7.366c3.222 3.176 5.779 6.96 7.525 11.134s2.645 8.651 2.645 13.175c0 4.524-0.899 9.002-2.645 13.175s-4.304 7.957-7.525 11.133c-3.221 3.176-7.041 5.68-11.239 7.367s-8.688 2.522-13.211 2.458h-68.267zM1007.821 643.2c-4.526 0.064-9.018-0.771-13.21-2.458-4.198-1.686-8.021-4.19-11.244-7.367s-5.775-6.96-7.523-11.133c-1.748-4.173-2.642-8.651-2.642-13.175s0.894-9.002 2.642-13.175c1.748-4.173 4.301-7.957 7.523-11.134s7.045-5.68 11.244-7.366c4.192-1.687 8.684-2.522 13.21-2.459h68.267c4.519-0.063 9.011 0.772 13.21 2.459s8.015 4.19 11.237 7.366c3.222 3.176 5.782 6.96 7.53 11.134 1.741 4.173 2.642 8.651 2.642 13.175s-0.901 9.002-2.642 13.175c-1.748 4.173-4.308 7.957-7.53 11.133s-7.038 5.68-11.237 7.367c-4.198 1.687-8.69 2.522-13.21 2.458h-68.267zM923.020 375.288c-6.793-0.001-13.435-2.030-19.067-5.825s-10.008-9.185-12.561-15.48c-2.553-6.295-3.168-13.209-1.768-19.856 1.393-6.648 4.745-12.727 9.619-17.461l32.174-32.177c3.147-3.276 6.915-5.891 11.087-7.695 4.164-1.802 8.649-2.751 13.196-2.799 4.54-0.048 9.045 0.812 13.251 2.533 4.198 1.716 8.021 4.254 11.23 7.465 3.215 3.211 5.755 7.031 7.468 11.235s2.574 8.709 2.533 13.251c-0.048 4.541-0.997 9.027-2.799 13.196s-4.417 7.935-7.694 11.081l-32.181 32.177c-3.181 3.277-6.991 5.881-11.196 7.66s-8.724 2.695-13.292 2.695zM204.13 375.244c-8.864-0.258-17.28-3.956-23.467-10.311l-32.177-32.177c-3.276-3.146-5.891-6.913-7.693-11.081s-2.753-8.655-2.8-13.196c-0.046-4.541 0.814-9.046 2.531-13.251s4.255-8.024 7.466-11.235c3.211-3.211 7.031-5.749 11.235-7.465 4.204-1.72 8.709-2.58 13.25-2.533s9.028 0.997 13.196 2.799c4.168 1.804 7.936 4.419 11.081 7.695l32.178 32.177c4.924 4.796 8.286 10.966 9.645 17.705s0.653 13.729-2.027 20.059c-2.68 6.33-7.208 11.704-12.993 15.417s-12.555 5.594-19.426 5.396zM468.842 142.575h190.489l-14.266-64.307c-3.508-15.783-17.151-26.713-33.333-26.713h-95.289c-16.232 0-29.818 10.889-33.333 26.713l-14.266 64.307z" />
<glyph unicode="&#xe90f;" glyph-name="library" horiz-adv-x="1280" d="M156.333 903.333c-70.187 0-128-57.813-128-128v-679.999h0.445c-0.828-53.214 42.461-102.221 99.167-102.221h826.167c53.188 0 101.146 33.195 119.834 82.995l142.447 379.336c24.346 63.842-24.661 135-93.005 135h-14.165v42.667c0 70.187-57.813 128-128 128h-382.778l-127.111 105.945c-0.019 0-0.038 0-0.055 0-28.108 23.418-63.52 36.278-100.111 36.278h-214.833zM156.333 818h214.833c16.656 0 32.706-5.842 45.5-16.5l139-115.833c7.673-6.394 17.346-9.894 27.333-9.889h398.223c24.081 0 42.667-18.588 42.667-42.667v-42.667h-726.667c-53.191 0-101.146-33.195-119.833-83l-63.723-169.667v437.556c0 24.078 18.588 42.667 42.667 42.667zM297.222 505.111h826.166c11.375 0 17.331-8.68 13.278-19.278-0.034-0.092-0.077-0.185-0.111-0.278l-142.498-379.443c-6.289-16.759-22.025-27.665-39.945-27.665h-826.167c-11.313 0-17.305 8.61-13.333 19.166 0.019 0.017 0.037 0.034 0.055 0.051l142.611 379.78c6.287 16.755 22.025 27.667 39.945 27.667z" />
<glyph unicode="&#xe910;" glyph-name="agentlogo" horiz-adv-x="951" d="M438.857 935.714c-215.43 0-390.095-174.665-390.095-390.094v-92.763c-27.975-26.675-48.762-60.99-48.762-102.287 0-60.559 41.816-105.465 94.762-127.426 63.441-151.64 190.507-262.667 344.095-262.667h97.525c6.462-0.091 12.877 1.101 18.871 3.511 5.998 2.41 11.454 5.987 16.055 10.525 4.604 4.535 8.258 9.94 10.752 15.905 2.494 5.961 3.778 12.357 3.778 18.82s-1.284 12.859-3.778 18.823c-2.494 5.961-6.148 11.366-10.752 15.905-4.601 4.535-10.057 8.112-16.055 10.522-5.994 2.41-12.409 3.602-18.871 3.511h-97.525c-110.126 0-210.117 82.922-260.381 213.906-3.131 8.163-8.398 15.334-15.251 20.762-6.853 5.431-15.039 8.916-23.702 10.094-24.015 3.306-42 22.693-42 47.81 0 18.776 9.48 33.503 24.286 42.002 7.439 4.272 13.618 10.43 17.916 17.854 4.298 7.428 6.561 15.854 6.561 24.43v62c0 26.917 21.845 48.764 48.762 48.764h487.62c26.917 0 48.761-21.848 48.761-48.764v-243.807h-199.333c-5.036 14.245-14.362 26.576-26.69 35.31-12.328 8.73-27.059 13.429-42.167 13.451-19.401 0-38.005-7.706-51.719-21.424-13.718-13.718-21.424-32.322-21.424-51.719 0.022-18.476 7.040-36.257 19.635-49.77 12.595-13.517 29.842-21.764 48.267-23.088 1.741-0.19 3.489-0.285 5.241-0.285h365.714c53.636 0 97.521 43.886 97.521 97.525v97.521c0 53.639-43.886 97.525-97.521 97.525v97.525c0 215.429-174.665 390.094-390.096 390.094z" />
<glyph unicode="&#xe911;" glyph-name="close" horiz-adv-x="931" d="M531.273 470.537l386.003 386.004c18.176 18.178 18.176 47.648 0 65.826s-47.648 18.177-65.825 0l-386.005-386.006-385.988 385.972c-18.178 18.177-47.648 18.176-65.825-0.001s-18.176-47.648 0.001-65.825l385.986-385.971-385.988-385.987c-18.177-18.178-18.177-47.649 0-65.827 18.177-18.171 47.648-18.171 65.825 0l385.989 385.991 386.005-385.991c18.178-18.171 47.649-18.171 65.826 0 18.174 18.181 18.174 47.651-0.002 65.828l-386.003 385.988z" />
<glyph unicode="&#xe912;" glyph-name="reset" d="M364 957.333l-284.666-296 284.666-296 61.333 58.667-186.667 194.667h401.334c165.333 0 298.667-133.333 298.667-298.667v-384h85.333v384c0 211.667-172.667 384-384 384h-401.334l186.667 194.667-61.333 58.667z" />
<glyph unicode="&#xe913;" glyph-name="rule" horiz-adv-x="1109" d="M69.333 881.231c0 43.492 35.278 78.769 78.769 78.769h236.308c43.492 0 78.769-35.277 78.769-78.769v-78.769h236.308v78.769c0 43.492 35.277 78.769 78.769 78.769h236.306c43.494 0 78.771-35.277 78.771-78.769v-236.308c0-43.492-35.277-78.769-78.771-78.769h-78.771v-236.308h78.771c43.494 0 78.771-35.277 78.771-78.769v-236.306c0-43.494-35.277-78.771-78.771-78.771h-236.306c-43.492 0-78.769 35.277-78.769 78.771v236.306c0 43.492 35.277 78.769 78.769 78.769h78.772v236.308h-78.772c-43.492 0-78.769 35.277-78.769 78.769v78.769h-236.308v-78.769c0-43.492-35.277-78.769-78.769-78.769h-78.769v-236.308h78.769c43.481 0 78.769-35.367 78.769-78.769v-236.306c0-43.401-35.288-78.771-78.769-78.771h-236.308c-43.481 0-78.769 35.371-78.769 78.771v236.306c0 43.401 35.289 78.769 78.769 78.769h78.769v236.308h-78.769c-43.492 0-78.769 35.277-78.769 78.769v236.308zM384.41 881.231h-236.308v-236.308h236.308v236.308zM1014.562 881.231h-236.306v-236.308h236.306v236.308zM778.256 14.771v236.306h236.306v-236.306h-236.306z" />
<glyph unicode="&#xe914;" glyph-name="edited" horiz-adv-x="853" d="M813 936.917c-37.041 0-72.041-18.375-101.208-47.25l-605.792-602.583-101.209-303.041 303.042 100.915 6.417 6.127 599.96 596.165c28.877 29.167 46.959 64.166 46.959 101.209s-18.082 72.041-46.959 101.208c-29.167 28.875-64.168 47.25-101.21 47.25zM663.375 736.25l96.541-96.834-492.333-489.417-144.666-48.129 48.416 144.963 492.042 489.417z" />
<glyph unicode="&#xe915;" glyph-name="thumb-new" d="M996.998 423.98c0 31.263-12 59.369-31.578 80.842 19.578 21.474 31.578 49.579 31.578 80.842 0 66.947-54.317 121.263-121.261 121.263h-319.264l29.684 87.158c9.158 31.263 5.368 64.105-10.106 92.526-15.473 28.105-41.368 48.948-72.316 58.105-57.158 16.105-114.632-8.526-156.316-72.948l-149.052-245.684h-173.369v-646.739h192v1.894c3.474-0.627 6.632-1.894 10.106-1.894h567.788c66.95 0 121.267 54.317 121.267 121.267 0 18.31-4.422 35.366-11.686 51.155 42.63 18.63 72.314 61.261 72.314 110.528 0 26.208-8.525 50.208-22.419 70.104 25.894 22.106 42.63 54.948 42.63 91.579zM105.842 545.244h80.842v-485.052h-80.842v485.052zM794.893 60.192h-527.366v524.209l148.421 244.421c25.894 39.789 46.105 39.789 53.684 39.789 3.789 0 7.895-0.632 11.368-1.579 21.474-6.316 33.789-28.737 28.106-48.632l-47.368-138.947c-4.106-12.316-2.211-25.894 5.368-36.316 7.579-10.737 19.894-17.053 32.842-17.053h375.79c22.419 0 40.422-18.316 40.422-40.421s-18.003-40.421-40.422-40.421h-121.261v-80.842h121.261c22.419 0 40.422-18.316 40.422-40.421s-18.003-40.42-40.422-40.42h-121.261v-80.84h101.050c22.419 0 40.422-18.317 40.422-40.422s-18.003-40.422-40.422-40.422h-101.050v-80.845h40.416c22.426 0 40.422-18.31 40.422-40.416s-17.997-40.422-40.422-40.422z" />
</font>
</defs>
</svg>
